<svg xmlns="http://www.w3.org/2000/svg" xmlns:xlink="http://www.w3.org/1999/xlink" width="512" zoomAndPan="magnify" viewBox="0 0 384 383.999986" height="512" preserveAspectRatio="xMidYMid meet" version="1.2"><g id="659c2535ef"><path style=" stroke:none;fill-rule:nonzero;fill:#ffffff;fill-opacity:1;" d="M 120.675781 0.75 C 95.925781 1.800781 78.976562 4.949219 64.648438 11.101562 C 51.226562 16.875 43.273438 22.199219 33.375 32.023438 C 20.023438 45.300781 11.699219 60.226562 6.449219 80.25 C 1.800781 97.949219 0.75 118.273438 0.75 192 C 0.75 264.523438 1.726562 285.074219 6.074219 302.773438 C 16.875 346.800781 49.125 374.851562 96.601562 381.375 C 110.175781 383.175781 138.675781 384 193.125 384 C 243.75 384 272.925781 383.25 286.050781 381.675781 C 312.898438 378.523438 333.898438 369.226562 350.476562 353.324219 C 369.148438 335.324219 379.050781 313.800781 382.648438 283.125 C 384.074219 271.125 384.074219 111.074219 382.648438 99.75 C 379.726562 76.800781 372.898438 57.898438 362.101562 43.425781 C 356.773438 36.226562 345.375 25.351562 338.25 20.476562 C 322.125 9.601562 302.699219 3.601562 277.125 1.425781 C 265.050781 0.449219 141.148438 -0.0742188 120.675781 0.75 Z M 282.898438 36.976562 C 304.273438 40.125 316.273438 45.449219 327.824219 56.925781 C 335.324219 64.425781 339.449219 71.023438 343.125 81.226562 C 349.273438 98.476562 349.875 107.625 349.875 192.375 C 349.875 241.199219 349.574219 264.675781 348.898438 272.550781 C 346.726562 298.574219 341.550781 312.601562 329.398438 325.574219 C 316.726562 339.074219 300.898438 345.75 276.375 348 C 263.101562 349.273438 153.375 349.875 128.101562 348.824219 C 116.699219 348.375 104.773438 347.625 101.550781 347.175781 C 87.375 345.226562 73.648438 340.199219 65.101562 333.976562 C 59.773438 330 51.226562 320.699219 48.074219 315.449219 C 41.773438 304.949219 38.023438 290.175781 36.75 271.425781 C 34.5 237.375 35.25 120.523438 37.800781 101.175781 C 40.5 81.148438 46.726562 67.648438 58.5 56.25 C 71.398438 43.726562 88.351562 37.648438 114.601562 36 C 120.300781 35.699219 158.625 35.476562 199.875 35.625 C 263.851562 35.773438 276.074219 35.925781 282.898438 36.976562 Z M 282.898438 36.976562 "/><path style=" stroke:none;fill-rule:nonzero;fill:#ffffff;fill-opacity:1;" d="M 285.148438 69 C 276.675781 73.273438 272.625 79.875 272.625 89.625 C 272.625 96.675781 274.273438 100.875 279.074219 105.675781 C 283.875 110.398438 288.074219 112.125 295.125 112.125 C 300.148438 112.125 301.800781 111.824219 305.398438 110.023438 C 312.976562 106.273438 317.25 99.75 317.851562 91.050781 C 318.375 83.324219 316.648438 78.824219 311.324219 73.425781 C 306.375 68.476562 302.023438 66.75 294.75 66.75 C 290.699219 66.75 288.898438 67.199219 285.148438 69 Z M 285.148438 69 "/><path style=" stroke:none;fill-rule:nonzero;fill:#ffffff;fill-opacity:1;" d="M 175.199219 94.949219 C 155.476562 98.550781 138 107.773438 123.300781 122.550781 C 103.800781 141.976562 94.425781 164.699219 94.425781 192 C 94.425781 208.5 97.5 222.074219 104.324219 235.726562 C 125.324219 277.425781 171.523438 298.800781 216.449219 287.625 C 234.148438 283.199219 247.800781 275.550781 261.074219 262.726562 C 273 251.175781 281.023438 238.574219 286.050781 223.5 C 289.648438 212.625 291 204.226562 291 192 C 291 179.851562 289.648438 171.375 286.125 160.726562 C 281.324219 146.324219 274.351562 134.925781 263.476562 123.675781 C 248.625 108.375 230.101562 98.476562 209.699219 94.875 C 201.375 93.449219 183.300781 93.449219 175.199219 94.949219 Z M 204.898438 129.300781 C 239.25 135.898438 262.050781 169.648438 255.449219 204.226562 C 251.398438 225.148438 236.023438 243.75 216.375 251.324219 C 206.773438 255.074219 201.226562 255.976562 190.125 255.523438 C 182.25 255.226562 179.175781 254.773438 174 253.125 C 151.273438 245.925781 134.699219 227.550781 130.050781 204.449219 C 128.25 195.523438 128.925781 181.648438 131.625 173.25 C 138.675781 150.898438 157.5 133.875 179.925781 129.375 C 186.601562 128.023438 198.148438 128.023438 204.898438 129.300781 Z M 204.898438 129.300781 "/></g></svg>