<svg xmlns="http://www.w3.org/2000/svg" xmlns:xlink="http://www.w3.org/1999/xlink" width="512" zoomAndPan="magnify" viewBox="0 0 384 383.999986" height="512" preserveAspectRatio="xMidYMid meet" version="1.2"><g id="65ebf548a3"><path style=" stroke:none;fill-rule:nonzero;fill:#ffffff;fill-opacity:1;" d="M 209.25 145.648438 C 209.25 230.773438 208.949219 274.949219 208.425781 278.175781 C 204.375 303.523438 183.226562 322.5 157.875 323.773438 C 131.625 325.199219 108.375 308.550781 101.550781 283.425781 C 99.523438 276 99.675781 262.949219 101.925781 255.75 C 107.773438 236.699219 122.699219 222.375 141.375 217.800781 C 148.050781 216.148438 160.726562 216.074219 167.101562 217.648438 L 171.75 218.773438 L 171.75 188.851562 C 171.75 161.101562 171.675781 158.925781 170.476562 158.398438 C 169.726562 158.101562 162.226562 157.875 153.75 157.875 C 140.773438 157.949219 137.25 158.175781 131.101562 159.523438 C 109.574219 164.398438 91.050781 174.074219 75.976562 188.476562 C 62.175781 201.675781 52.726562 216.226562 46.648438 233.324219 C 42.074219 246.375 40.875 253.800781 40.875 270 C 40.875 281.023438 41.25 286.273438 42.226562 291.226562 C 48.226562 321 65.773438 347.023438 91.125 363.898438 C 130.574219 390.074219 182.773438 389.25 221.476562 361.726562 C 229.351562 356.175781 242.175781 343.351562 247.726562 335.476562 C 256.351562 323.324219 262.726562 309 266.398438 293.550781 L 268.125 286.125 L 267.898438 211.648438 L 267.75 137.175781 L 271.648438 140.101562 C 287.550781 151.648438 308.925781 161.101562 329.101562 165.300781 C 337.125 167.023438 351.601562 168.75 357.601562 168.75 L 360 168.75 L 360 139.5 C 360 123.375 359.851562 110.25 359.699219 110.25 C 355.050781 110.25 341.925781 108.148438 336 106.425781 C 318.375 101.324219 305.773438 93.75 293.25 80.476562 C 286.5 73.425781 281.101562 65.625 277.425781 57.898438 C 272.398438 47.398438 268.5 32.550781 268.5 24 C 268.5 17.476562 271.199219 18 238.425781 18 L 209.25 18 Z M 209.25 145.648438 "/></g></svg>