<svg xmlns="http://www.w3.org/2000/svg" xmlns:xlink="http://www.w3.org/1999/xlink" width="512" zoomAndPan="magnify" viewBox="0 0 384 383.999986" height="512" preserveAspectRatio="xMidYMid meet" version="1.2"><g id="1ad85f28b9"><path style=" stroke:none;fill-rule:nonzero;fill:#ffffff;fill-opacity:1;" d="M 139.125 58.574219 C 84.074219 59.851562 49.273438 62.851562 37.726562 67.125 C 21.074219 73.425781 10.351562 87.074219 6.449219 107.25 C -2.25 151.574219 -1.648438 244.726562 7.5 282.375 C 11.550781 298.726562 23.324219 311.925781 38.773438 317.324219 C 56.625 323.476562 121.800781 326.773438 211.5 326.023438 C 282.601562 325.351562 320.773438 323.324219 340.125 319.050781 C 354.226562 315.898438 366.675781 306 372.824219 292.875 C 378.601562 280.726562 381.675781 257.476562 383.398438 213.898438 C 384.976562 173.550781 382.050781 124.425781 376.726562 102.75 C 373.875 91.125 367.351562 80.851562 358.726562 74.324219 C 351.898438 69.226562 344.625 66.300781 334.199219 64.5 C 303.601562 59.25 218.023438 56.699219 139.125 58.574219 Z M 203.175781 162.898438 C 229.800781 178.199219 252.074219 191.101562 252.523438 191.550781 C 253.273438 192.226562 242.25 198.898438 206.023438 219.75 C 180 234.75 157.5 247.726562 156.226562 248.476562 L 153.75 249.898438 L 153.75 192.449219 C 153.75 160.875 153.976562 135 154.199219 135 C 154.425781 135 176.476562 147.523438 203.175781 162.898438 Z M 203.175781 162.898438 "/></g></svg>